# xmcd
# 
# Track frame offsets:
#     150
#     16050
#     31725
#     47550
#     60600
#     80925
#     98400
#     118800
# 
# Disc length: 1891
# 
# Revision: 0
# Processed by: cddbd v1.5.2PL0 Copyright (c) Steve Scherf et al.
# Submitted via: BonkEnc v1.0
# 
DISCID=59076108
DTITLE=Nirvana - Madison, Wi April 1990
DYEAR=1990
DGENRE=Hard Rock
TTITLE0=Breed
TTITLE1=Stay Away
TTITLE2=Sappy
TTITLE3=Polly
TTITLE4=In Bloom
TTITLE5=Dive
TTITLE6=Lithium
TTITLE7=If She Comes Down
EXTD=
EXTT0=
EXTT1=
EXTT2=
EXTT3=
EXTT4=
EXTT5=
EXTT6=
EXTT7=
PLAYORDER=
